<?xml version="1.0" encoding="UTF-8"?><svg id="Warstwa_1" xmlns="http://www.w3.org/2000/svg" viewBox="0 0 300 300"><defs><style>.cls-1{fill:#000;}.cls-1,.cls-2{stroke-width:0px;}.cls-2{fill:#fff;}</style></defs><g id="logo_2-8"><path class="cls-1" d="M150,52.61c-53.78,0-97.38,43.6-97.38,97.39,0,25.76,10,49.17,26.33,66.58l24.11-24.12c.09-.08.18-.16.26-.23l20.79-20.78-30.18-30.17-11.07,11.07c-1.11,1.11-2.91,1.11-4.02,0l-.17-.18c-1.11-1.11-1.11-2.9,0-4.01l13.26-13.26c1.11-1.11,2.9-1.11,4.02.01l69.13,69.13c1.11,1.11,1.12,2.91.01,4.02l-.18.18c-1.11,1.11-2.91,1.1-4.02-.01l-32.59-32.59-24.5,24.5c-.09.09-.18.17-.26.24l-20.41,20.4c17.44,16.49,40.96,26.6,66.87,26.6,53.78,0,97.38-43.6,97.38-97.38s-43.6-97.39-97.38-97.39ZM122.12,148.08l-.18.17c-1.11,1.11-2.9,1.11-4.01,0l-17.67-17.66c-1.11-1.11-1.11-2.91,0-4.02l.18-.17c1.11-1.11,2.91-1.11,4.02,0l6.72,6.72,25.99-25.99-2.02-2.01c-.64-.64-.2-2,.85-2.49l9.34-4.9,8.08-4.23c1.29-.67,2.31.35,1.64,1.65l-4.23,8.07-4.89,9.35c-.54,1-1.86,1.49-2.5.85l-2.06-2.06-25.98,25.98,6.72,6.72c1.11,1.11,1.11,2.91,0,4.02ZM147.72,173.67l-.17.18c-1.11,1.11-2.91,1.11-4.02,0l-17.66-17.67c-1.11-1.1-1.11-2.9,0-4.01l.17-.18c1.11-1.11,2.92-1.1,4.02,0l6.61,6.61,38.95-38.95-2.04-2.03c-.64-.65-.2-2,.85-2.49l9.34-4.9,8.07-4.24c1.29-.66,2.32.37,1.65,1.66l-4.23,8.08-4.89,9.34c-.56,1-1.86,1.49-2.5.85l-2.04-2.04-38.94,38.94,6.83,6.83c1.11,1.11,1.11,2.91,0,4.02ZM206.58,146.66l-4.23,8.07-4.9,9.34c-.54,1-1.86,1.5-2.49.86l-2.16-2.16-25.98,25.98,6.71,6.71c1.11,1.11,1.12,2.92.01,4.03l-.18.17c-1.11,1.11-2.91,1.11-4.03-.01l-17.63-17.64c-1.12-1.11-1.13-2.92-.02-4.03l.18-.17c1.11-1.11,2.91-1.11,4.03.01l6.71,6.71,25.99-25.99-1.92-1.91c-.64-.65-.2-2,.85-2.49l9.34-4.9,8.07-4.24c1.29-.67,2.32.36,1.65,1.66Z"/><path class="cls-2" d="M147.72,173.67l-.18.18c-1.11,1.11-2.91,1.11-4.02,0l-17.66-17.66c-1.1-1.1-1.11-2.91,0-4.02l.18-.18c1.11-1.11,2.91-1.1,4.02,0l6.61,6.61,38.95-38.95-2.04-2.04c-.64-.64-.21-2,.85-2.49l9.34-4.9,8.07-4.24c1.29-.66,2.32.37,1.65,1.65l-4.24,8.08-4.89,9.34c-.56,1-1.87,1.48-2.5.85l-2.04-2.04-38.94,38.94,6.83,6.83c1.11,1.11,1.11,2.91,0,4.02Z"/><path class="cls-2" d="M165.09,208.07l-.18.18c-1.11,1.11-2.91,1.1-4.02-.01l-32.59-32.59-24.5,24.5c-.09.09-.18.17-.26.24l-20.41,20.4c-1.44-1.35-2.84-2.75-4.18-4.2l24.11-24.12c.09-.08.18-.16.26-.23l20.79-20.78-30.18-30.17-11.07,11.07c-1.11,1.11-2.91,1.11-4.02,0l-.17-.18c-1.11-1.11-1.11-2.9,0-4.01l13.26-13.26c1.11-1.11,2.9-1.11,4.02.01l69.13,69.13c1.11,1.11,1.12,2.91.01,4.02Z"/><path class="cls-2" d="M173.54,199.49l-.18.18c-1.11,1.11-2.91,1.1-4.03-.01l-17.64-17.64c-1.12-1.12-1.12-2.92-.01-4.03l.18-.18c1.11-1.11,2.91-1.1,4.03.01l6.71,6.71,25.99-25.99-1.92-1.92c-.64-.64-.21-2,.85-2.49l9.34-4.9,8.07-4.24c1.29-.67,2.33.36,1.65,1.65l-4.23,8.08-4.9,9.34c-.54,1-1.86,1.49-2.5.86l-2.16-2.16-25.98,25.98,6.7,6.7c1.12,1.12,1.12,2.92.01,4.03Z"/><path class="cls-2" d="M122.12,148.07l-.18.18c-1.11,1.11-2.91,1.11-4.02,0l-17.66-17.66c-1.11-1.11-1.11-2.91,0-4.02l.18-.18c1.11-1.11,2.91-1.11,4.02,0l6.72,6.72,25.99-25.99-2.02-2.02c-.64-.64-.2-1.99.85-2.49l9.34-4.9,8.08-4.23c1.29-.67,2.32.35,1.65,1.65l-4.23,8.08-4.89,9.35c-.54,1-1.86,1.49-2.5.85l-2.06-2.06-25.98,25.98,6.72,6.72c1.11,1.11,1.11,2.91,0,4.02Z"/></g></svg>