  0
SECTION
  2
HEADER
  9
$ACADVER
  1
AC1014
  9
$HANDSEED
  5
FFFF
  9
$MEASUREMENT
 70
     1
  0
ENDSEC
  0
SECTION
  2
TABLES
  0
TABLE
  2
VPORT
  5
8
330
0
100
AcDbSymbolTable
 70
     4
  0
VPORT
  5
2E
330
8
100
AcDbSymbolTableRecord
100
AcDbViewportTableRecord
  2
*ACTIVE
 70
     0
 10
0.0
 20
0.0
 11
1.0
 21
1.0
 12
210.0
 22
148.5
 13
0.0
 23
0.0
 14
10.0
 24
10.0
 15
10.0
 25
10.0
 16
0.0
 26
0.0
 36
1.0
 17
0.0
 27
0.0
 37
0.0
 40
341.0
 41
1.24
 42
50.0
 43
0.0
 44
0.0
 50
0.0
 51
0.0
 71
     0
 72
   100
 73
     1
 74
     3
 75
     0
 76
     0
 77
     0
 78
     0
  0
ENDTAB
  0
TABLE
  2
LTYPE
  5
5
330
0
100
AcDbSymbolTable
 70
     1
  0
LTYPE
  5
14
330
5
100
AcDbSymbolTableRecord
100
AcDbLinetypeTableRecord
  2
BYBLOCK
 70
     0
  3

 72
    65
 73
     0
 40
0.0
  0
LTYPE
  5
15
330
5
100
AcDbSymbolTableRecord
100
AcDbLinetypeTableRecord
  2
BYLAYER
 70
     0
  3

 72
    65
 73
     0
 40
0.0
  0
LTYPE
  5
16
330
5
100
AcDbSymbolTableRecord
100
AcDbLinetypeTableRecord
  2
CONTINUOUS
 70
     0
  3
Solid line
 72
    65
 73
     0
 40
0.0
  0
ENDTAB
  0
TABLE
  2
LAYER
  5
2
100
AcDbSymbolTable
 70
5
  0
LAYER
  5
50
100
AcDbSymbolTableRecord
100
AcDbLayerTableRecord
  2
0
 70
0
  6
CONTINUOUS
  0
LAYER
  5
51
100
AcDbSymbolTableRecord
100
AcDbLayerTableRecord
  2
Background
 70
0
  6
CONTINUOUS
  0
LAYER
  5
52
100
AcDbSymbolTableRecord
100
AcDbLayerTableRecord
  2
Trydent
 70
0
  6
CONTINUOUS
  0
LAYER
  5
53
100
AcDbSymbolTableRecord
100
AcDbLayerTableRecord
  2
Layer_1
 70
0
  6
CONTINUOUS
  0
LAYER
  5
54
100
AcDbSymbolTableRecord
100
AcDbLayerTableRecord
  2
Guides
 70
0
  6
CONTINUOUS
  0
ENDTAB
  0
TABLE
  2
STYLE
  5
3
330
0
100
AcDbSymbolTable
 70
     1
  0
STYLE
  5
11
330
3
100
AcDbSymbolTableRecord
100
AcDbTextStyleTableRecord
  2
STANDARD
 70
     0
 40
0.0
 41
1.0
 50
0.0
 71
     0
 42
2.5
  3
txt
  4

  0
ENDTAB
  0
TABLE
  2
VIEW
  5
6
330
0
100
AcDbSymbolTable
 70
     0
  0
ENDTAB
  0
TABLE
  2
UCS
  5
7
330
0
100
AcDbSymbolTable
 70
     0
  0
ENDTAB
  0
TABLE
  2
APPID
  5
9
330
0
100
AcDbSymbolTable
 70
     2
  0
APPID
  5
12
330
9
100
AcDbSymbolTableRecord
100
AcDbRegAppTableRecord
  2
ACAD
 70
     0
  0
ENDTAB
  0
TABLE
  2
DIMSTYLE
  5
A
330
0
100
AcDbSymbolTable
 70
     1
  0
DIMSTYLE
105
27
330
A
100
AcDbSymbolTableRecord
100
AcDbDimStyleTableRecord
  2
ISO-25
 70
     0
  3

  4

  5

  6

  7

 40
1.0
 41
2.5
 42
0.625
 43
3.75
 44
1.25
 45
0.0
 46
0.0
 47
0.0
 48
0.0
140
2.5
141
2.5
142
0.0
143
0.03937007874016
144
1.0
145
0.0
146
1.0
147
0.625
 71
     0
 72
     0
 73
     0
 74
     0
 75
     0
 76
     0
 77
     1
 78
     8
170
     0
171
     3
172
     1
173
     0
174
     0
175
     0
176
     0
177
     0
178
     0
270
     2
271
     2
272
     2
273
     2
274
     3
340
11
275
     0
280
     0
281
     0
282
     0
283
     0
284
     8
285
     0
286
     0
287
     3
288
     0
  0
ENDTAB
  0
TABLE
  2
BLOCK_RECORD
  5
1
330
0
100
AcDbSymbolTable
 70
     1
  0
BLOCK_RECORD
  5
1F
330
1
100
AcDbSymbolTableRecord
100
AcDbBlockTableRecord
  2
*MODEL_SPACE
  0
BLOCK_RECORD
  5
1B
330
1
100
AcDbSymbolTableRecord
100
AcDbBlockTableRecord
  2
*PAPER_SPACE
  0
ENDTAB
  0
ENDSEC
  0
SECTION
  2
BLOCKS
  0
BLOCK
  5
20
330
1F
100
AcDbEntity
  8
0
100
AcDbBlockBegin
  2
*MODEL_SPACE
 70
     0
 10
0.0
 20
0.0
 30
0.0
  3
*MODEL_SPACE
  1

  0
ENDBLK
  5
21
330
1F
100
AcDbEntity
  8
0
100
AcDbBlockEnd
  0
BLOCK
  5
1C
330
1B
100
AcDbEntity
 67
     1
  8
0
100
AcDbBlockBegin
  2
*PAPER_SPACE
  1

  0
ENDBLK
  5
1D
330
1B
100
AcDbEntity
 67
     1
  8
0
100
AcDbBlockEnd
  0
ENDSEC
  0
SECTION
  2
ENTITIES
  0
LWPOLYLINE
  5
100
100
AcDbEntity
  8
Background
 62
7
100
AcDbPolyline
 90
1
 70
1
 10
57.761593
 20
7.963839
 30
0.0
  0
SPLINE
  5
101
100
AcDbEntity
  8
Background
 62
7
100
AcDbSpline
 70
0
 71
3
 72
25
 73
21
 74
19
 40
0.000000
 40
0.000000
 40
0.000000
 40
0.000000
 40
13.269617
 40
26.302938
 40
39.572555
 40
52.842171
 40
65.875492
 40
79.145109
 40
92.414726
 40
105.448047
 40
118.717664
 40
131.987281
 40
145.020602
 40
158.290218
 40
167.139895
 40
175.916338
 40
184.766015
 40
193.615692
 40
202.392134
 40
211.241811
 40
211.241811
 40
211.241811
 40
211.241811
 10
57.761593
 20
7.963839
 30
0.0
 10
54.250483
 20
10.748476
 30
0.0
 10
47.290787
 20
16.268164
 30
0.0
 10
33.815981
 20
18.696465
 30
0.0
 10
20.590884
 20
16.127271
 30
0.0
 10
9.326765
 20
8.577113
 30
0.0
 10
1.817008
 20
-2.664041
 30
0.0
 10
-0.840650
 20
-15.941152
 30
0.0
 10
1.816197
 20
-29.216907
 30
0.0
 10
9.329969
 20
-40.462083
 30
0.0
 10
20.578620
 20
-47.997290
 30
0.0
 10
33.861398
 20
-50.622097
 30
0.0
 10
47.123375
 20
-47.988637
 30
0.0
 10
57.139951
 20
-41.301323
 30
0.0
 10
63.468195
 20
-33.037729
 30
0.0
 10
66.884528
 20
-24.792685
 30
0.0
 10
68.058991
 20
-15.935666
 30
0.0
 10
66.865679
 20
-7.110112
 30
0.0
 10
63.543122
 20
1.228804
 30
0.0
 10
59.694100
 20
5.712617
 30
0.0
 10
57.761593
 20
7.963839
 30
0.0
 11
57.761593
 21
7.963839
 31
0.0
 11
46.720083
 21
15.323715
 31
0.0
 11
33.937194
 21
17.866390
 31
0.0
 11
20.919665
 21
15.292154
 31
0.0
 11
9.894623
 21
7.907631
 31
0.0
 11
2.653698
 21
-2.929179
 31
0.0
 11
0.050390
 21
-15.940925
 31
0.0
 11
2.653698
 21
-28.952670
 31
0.0
 11
9.894623
 21
-39.789480
 31
0.0
 11
20.919665
 21
-47.174003
 31
0.0
 11
33.937194
 21
-49.748239
 31
0.0
 11
46.720083
 21
-47.205564
 31
0.0
 11
57.761593
 21
-39.845688
 31
0.0
 11
63.146445
 21
-32.822857
 31
0.0
 11
66.505044
 21
-24.714481
 31
0.0
 11
67.663270
 21
-15.940925
 31
0.0
 11
66.505044
 21
-7.167368
 31
0.0
 11
63.146445
 21
0.941007
 31
0.0
 11
57.761593
 21
7.963839
 31
0.0
  0
LWPOLYLINE
  5
102
100
AcDbEntity
  8
Trydent
 62
7
100
AcDbPolyline
 90
3
 70
1
 10
33.878917
 20
-15.911091
 30
0.0
 10
33.878917
 20
-15.911091
 30
0.0
 10
33.878917
 20
-15.911091
 30
0.0
  0
SPLINE
  5
103
100
AcDbEntity
  8
Trydent
 62
7
100
AcDbSpline
 70
0
 71
3
 72
10
 73
6
 74
4
 40
0.000000
 40
0.000000
 40
0.000000
 40
0.000000
 40
0.094693
 40
0.199091
 40
0.315617
 40
0.315617
 40
0.315617
 40
0.315617
 10
52.368019
 20
-14.080381
 30
0.0
 10
52.336369
 20
-14.080038
 30
0.0
 10
52.269826
 20
-14.079316
 30
0.0
 10
52.166407
 20
-14.104548
 30
0.0
 10
52.099721
 20
-14.135971
 30
0.0
 10
52.064547
 20
-14.152544
 30
0.0
 11
52.368019
 21
-14.080381
 31
0.0
 11
52.273366
 21
-14.083115
 31
0.0
 11
52.171655
 21
-14.106651
 31
0.0
 11
52.064547
 21
-14.152544
 31
0.0
  0
LWPOLYLINE
  5
104
100
AcDbEntity
  8
Trydent
 62
7
100
AcDbPolyline
 90
3
 70
0
 10
52.064547
 20
-14.152544
 30
0.0
 10
49.326849
 20
-15.582280
 30
0.0
 10
46.163260
 20
-17.242037
 30
0.0
  0
SPLINE
  5
105
100
AcDbEntity
  8
Trydent
 62
7
100
AcDbSpline
 70
0
 71
3
 72
10
 73
6
 74
4
 40
0.000000
 40
0.000000
 40
0.000000
 40
0.000000
 40
0.371138
 40
0.710016
 40
1.005577
 40
1.005577
 40
1.005577
 40
1.005577
 10
46.163260
 20
-17.242037
 30
0.0
 10
46.061252
 20
-17.313411
 30
0.0
 10
45.866104
 20
-17.449956
 30
0.0
 10
45.727546
 20
-17.799527
 30
0.0
 10
45.828309
 20
-17.994579
 30
0.0
 10
45.875250
 20
-18.085446
 30
0.0
 11
46.163260
 21
-17.242037
 31
0.0
 11
45.883827
 21
-17.486292
 31
0.0
 11
45.775266
 21
-17.807310
 31
0.0
 11
45.875250
 21
-18.085446
 31
0.0
  0
LWPOLYLINE
  5
106
100
AcDbEntity
  8
Trydent
 62
7
100
AcDbPolyline
 90
4
 70
0
 10
45.875250
 20
-18.085446
 30
0.0
 10
46.530045
 20
-18.747294
 30
0.0
 10
38.111041
 20
-27.166300
 30
0.0
 10
36.004270
 20
-25.072577
 30
0.0
  0
SPLINE
  5
107
100
AcDbEntity
  8
Trydent
 62
7
100
AcDbSpline
 70
0
 71
3
 72
10
 73
6
 74
4
 40
0.000000
 40
0.000000
 40
0.000000
 40
0.000000
 40
0.503695
 40
0.991387
 40
1.495081
 40
1.495081
 40
1.495081
 40
1.495081
 10
36.004270
 20
-25.072577
 30
0.0
 10
35.866293
 20
-24.971748
 30
0.0
 10
35.594723
 20
-24.773293
 30
0.0
 10
35.053022
 20
-24.773293
 30
0.0
 10
34.781452
 20
-24.971748
 30
0.0
 10
34.643475
 20
-25.072577
 30
0.0
 11
36.004270
 21
-25.072577
 31
0.0
 11
35.567718
 21
-24.821318
 31
0.0
 11
35.080027
 21
-24.821318
 31
0.0
 11
34.643475
 21
-25.072577
 31
0.0
  0
LWPOLYLINE
  5
108
100
AcDbEntity
  8
Trydent
 62
7
100
AcDbPolyline
 90
2
 70
0
 10
34.643475
 20
-25.072577
 30
0.0
 10
34.583550
 20
-25.132502
 30
0.0
  0
SPLINE
  5
109
100
AcDbEntity
  8
Trydent
 62
7
100
AcDbSpline
 70
0
 71
3
 72
10
 73
6
 74
4
 40
0.000000
 40
0.000000
 40
0.000000
 40
0.000000
 40
0.503768
 40
0.991512
 40
1.495168
 40
1.495168
 40
1.495168
 40
1.495168
 10
34.583550
 20
-25.132502
 30
0.0
 10
34.482708
 20
-25.270493
 30
0.0
 10
34.284232
 20
-25.542086
 30
0.0
 10
34.284100
 20
-26.083847
 30
0.0
 10
34.482671
 20
-26.355361
 30
0.0
 10
34.583551
 20
-26.493296
 30
0.0
 11
34.583550
 21
-25.132502
 31
0.0
 11
34.332238
 21
-25.569107
 31
0.0
 11
34.332185
 21
-26.056852
 31
0.0
 11
34.583551
 21
-26.493296
 31
0.0
  0
LWPOLYLINE
  5
10a
100
AcDbEntity
  8
Trydent
 62
7
100
AcDbPolyline
 90
2
 70
0
 10
34.583551
 20
-26.493296
 30
0.0
 10
40.227913
 20
-32.130429
 30
0.0
  0
SPLINE
  5
10b
100
AcDbEntity
  8
Trydent
 62
7
100
AcDbSpline
 70
0
 71
3
 72
10
 73
6
 74
4
 40
0.000000
 40
0.000000
 40
0.000000
 40
0.000000
 40
0.503735
 40
0.991372
 40
1.494994
 40
1.494994
 40
1.494994
 40
1.494994
 10
40.227913
 20
-32.130429
 30
0.0
 10
40.365931
 20
-32.231208
 30
0.0
 10
40.637557
 20
-32.429546
 30
0.0
 10
41.179197
 20
-32.429680
 30
0.0
 10
41.450744
 20
-32.231246
 30
0.0
 10
41.588707
 20
-32.130430
 30
0.0
 11
40.227913
 21
-32.130429
 31
0.0
 11
40.664572
 21
-32.381582
 31
0.0
 11
41.152209
 21
-32.381636
 31
0.0
 11
41.588707
 21
-32.130430
 31
0.0
  0
LWPOLYLINE
  5
10c
100
AcDbEntity
  8
Trydent
 62
7
100
AcDbPolyline
 90
2
 70
0
 10
41.588707
 20
-32.130430
 30
0.0
 10
41.647984
 20
-32.070509
 30
0.0
  0
SPLINE
  5
10d
100
AcDbEntity
  8
Trydent
 62
7
100
AcDbSpline
 70
0
 71
3
 72
10
 73
6
 74
4
 40
0.000000
 40
0.000000
 40
0.000000
 40
0.000000
 40
0.503694
 40
0.991385
 40
1.495079
 40
1.495079
 40
1.495079
 40
1.495079
 10
41.647984
 20
-32.070509
 30
0.0
 10
41.748813
 20
-31.932532
 30
0.0
 10
41.947267
 20
-31.660962
 30
0.0
 10
41.947267
 20
-31.119263
 30
0.0
 10
41.748813
 20
-30.847692
 30
0.0
 10
41.647985
 20
-30.709715
 30
0.0
 11
41.647984
 21
-32.070509
 31
0.0
 11
41.899242
 21
-31.633958
 31
0.0
 11
41.899242
 21
-31.146267
 31
0.0
 11
41.647985
 21
-30.709715
 31
0.0
  0
LWPOLYLINE
  5
10e
100
AcDbEntity
  8
Trydent
 62
7
100
AcDbPolyline
 90
4
 70
0
 10
41.647985
 20
-30.709715
 30
0.0
 10
39.514235
 20
-28.569441
 30
0.0
 10
47.933213
 20
-20.150461
 30
0.0
 10
48.687046
 20
-20.897241
 30
0.0
  0
SPLINE
  5
10f
100
AcDbEntity
  8
Trydent
 62
7
100
AcDbSpline
 70
0
 71
3
 72
10
 73
6
 74
4
 40
0.000000
 40
0.000000
 40
0.000000
 40
0.000000
 40
0.291003
 40
0.627304
 40
0.998988
 40
0.998988
 40
0.998988
 40
0.998988
 10
48.687046
 20
-20.897241
 30
0.0
 10
48.776972
 20
-20.943240
 30
0.0
 10
48.970823
 20
-21.042399
 30
0.0
 10
49.313507
 20
-20.896731
 30
0.0
 10
49.455768
 20
-20.708207
 30
0.0
 10
49.530454
 20
-20.609234
 30
0.0
 11
48.687046
 21
-20.897241
 31
0.0
 11
48.961416
 21
-20.994215
 31
0.0
 11
49.278670
 21
-20.882646
 31
0.0
 11
49.530454
 21
-20.609234
 31
0.0
  0
LWPOLYLINE
  5
110
100
AcDbEntity
  8
Trydent
 62
7
100
AcDbPolyline
 90
3
 70
0
 10
49.530454
 20
-20.609234
 30
0.0
 10
51.187015
 20
-17.444973
 30
0.0
 10
52.619973
 20
-14.707919
 30
0.0
  0
SPLINE
  5
111
100
AcDbEntity
  8
Trydent
 62
7
100
AcDbSpline
 70
0
 71
3
 72
10
 73
6
 74
4
 40
0.000000
 40
0.000000
 40
0.000000
 40
0.000000
 40
0.311996
 40
0.557539
 40
0.803018
 40
0.803018
 40
0.803018
 40
0.803018
 10
52.619973
 20
-14.707919
 30
0.0
 10
52.659543
 20
-14.608836
 30
0.0
 10
52.730256
 20
-14.431773
 30
0.0
 10
52.616559
 20
-14.147495
 30
0.0
 10
52.450877
 20
-14.102734
 30
0.0
 10
52.368046
 20
-14.080356
 30
0.0
 11
52.619973
 21
-14.707919
 31
0.0
 11
52.691821
 21
-14.404308
 31
0.0
 11
52.592504
 21
-14.179748
 31
0.0
 11
52.368046
 21
-14.080356
 31
0.0
  0
LWPOLYLINE
  5
112
100
AcDbEntity
  8
Trydent
 62
7
100
AcDbPolyline
 90
1
 70
1
 10
52.368046
 20
-14.080356
 30
0.0
  0
SPLINE
  5
113
100
AcDbEntity
  8
Trydent
 62
7
100
AcDbSpline
 70
0
 71
3
 72
10
 73
6
 74
4
 40
0.000000
 40
0.000000
 40
0.000000
 40
0.000000
 40
0.094685
 40
0.199016
 40
0.315477
 40
0.315477
 40
0.315477
 40
0.315477
 10
48.057362
 20
-1.352073
 30
0.0
 10
48.025718
 20
-1.351686
 30
0.0
 10
47.959208
 20
-1.350873
 30
0.0
 10
47.855740
 20
-1.375700
 30
0.0
 10
47.789061
 20
-1.407054
 30
0.0
 10
47.753890
 20
-1.423592
 30
0.0
 11
48.057362
 21
-1.352073
 31
0.0
 11
47.962711
 21
-1.354641
 31
0.0
 11
47.860999
 21
-1.377866
 31
0.0
 11
47.753890
 21
-1.423592
 31
0.0
  0
LWPOLYLINE
  5
114
100
AcDbEntity
  8
Trydent
 62
7
100
AcDbPolyline
 90
3
 70
0
 10
47.753890
 20
-1.423592
 30
0.0
 10
45.016838
 20
-2.853329
 30
0.0
 10
41.852603
 20
-4.513086
 30
0.0
  0
SPLINE
  5
115
100
AcDbEntity
  8
Trydent
 62
7
100
AcDbSpline
 70
0
 71
3
 72
10
 73
6
 74
4
 40
0.000000
 40
0.000000
 40
0.000000
 40
0.000000
 40
0.371247
 40
0.710419
 40
1.006135
 40
1.006135
 40
1.006135
 40
1.006135
 10
41.852603
 20
-4.513086
 30
0.0
 10
41.750590
 20
-4.584521
 30
0.0
 10
41.555379
 20
-4.721220
 30
0.0
 10
41.416896
 20
-5.071014
 30
0.0
 10
41.517659
 20
-5.266218
 30
0.0
 10
41.564593
 20
-5.357139
 30
0.0
 11
41.852603
 21
-4.513086
 31
0.0
 11
41.573172
 21
-4.757509
 31
0.0
 11
41.464611
 21
-5.078838
 31
0.0
 11
41.564593
 21
-5.357139
 31
0.0
  0
LWPOLYLINE
  5
116
100
AcDbEntity
  8
Trydent
 62
7
100
AcDbPolyline
 90
4
 70
0
 10
41.564593
 20
-5.357139
 30
0.0
 10
42.298469
 20
-6.098103
 30
0.0
 10
29.692019
 20
-18.747379
 30
0.0
 10
27.604816
 20
-16.625723
 30
0.0
  0
SPLINE
  5
117
100
AcDbEntity
  8
Trydent
 62
7
100
AcDbSpline
 70
0
 71
3
 72
10
 73
6
 74
4
 40
0.000000
 40
0.000000
 40
0.000000
 40
0.000000
 40
0.503186
 40
0.991566
 40
1.496198
 40
1.496198
 40
1.496198
 40
1.496198
 10
27.604816
 20
-16.625723
 30
0.0
 10
27.467369
 20
-16.524255
 30
0.0
 10
27.196518
 20
-16.324302
 30
0.0
 10
26.654042
 20
-16.326005
 30
0.0
 10
26.382178
 20
-16.524733
 30
0.0
 10
26.244022
 20
-16.625723
 30
0.0
 11
27.604816
 21
-16.625723
 31
0.0
 11
27.169642
 21
-16.373099
 31
0.0
 11
26.681262
 21
-16.373782
 31
0.0
 11
26.244022
 21
-16.625723
 31
0.0
  0
LWPOLYLINE
  5
118
100
AcDbEntity
  8
Trydent
 62
7
100
AcDbPolyline
 90
2
 70
0
 10
26.244022
 20
-16.625723
 30
0.0
 10
26.184101
 20
-16.685645
 30
0.0
  0
SPLINE
  5
119
100
AcDbEntity
  8
Trydent
 62
7
100
AcDbSpline
 70
0
 71
3
 72
10
 73
6
 74
4
 40
0.000000
 40
0.000000
 40
0.000000
 40
0.000000
 40
0.503550
 40
0.990931
 40
1.494482
 40
1.494482
 40
1.494482
 40
1.494482
 10
26.184101
 20
-16.685645
 30
0.0
 10
26.083268
 20
-16.823563
 30
0.0
 10
25.884841
 20
-17.094971
 30
0.0
 10
25.884841
 20
-17.636470
 30
0.0
 10
26.083268
 20
-17.907878
 30
0.0
 10
26.184101
 20
-18.045796
 30
0.0
 11
26.184101
 21
-16.685645
 31
0.0
 11
25.932842
 21
-17.122030
 31
0.0
 11
25.932842
 21
-17.609411
 31
0.0
 11
26.184101
 21
-18.045796
 31
0.0
  0
LWPOLYLINE
  5
11a
100
AcDbEntity
  8
Trydent
 62
7
100
AcDbPolyline
 90
2
 70
0
 10
26.184101
 20
-18.045796
 30
0.0
 10
31.796770
 20
-23.658466
 30
0.0
  0
SPLINE
  5
11b
100
AcDbEntity
  8
Trydent
 62
7
100
AcDbSpline
 70
0
 71
3
 72
10
 73
6
 74
4
 40
0.000000
 40
0.000000
 40
0.000000
 40
0.000000
 40
0.503694
 40
0.991385
 40
1.495079
 40
1.495079
 40
1.495079
 40
1.495079
 10
31.796770
 20
-23.658466
 30
0.0
 10
31.934747
 20
-23.759294
 30
0.0
 10
32.206318
 20
-23.957748
 30
0.0
 10
32.748017
 20
-23.957747
 30
0.0
 10
33.019588
 20
-23.759294
 30
0.0
 10
33.157565
 20
-23.658466
 30
0.0
 11
31.796770
 21
-23.658466
 31
0.0
 11
32.233322
 21
-23.909723
 31
0.0
 11
32.721013
 21
-23.909723
 31
0.0
 11
33.157565
 21
-23.658466
 31
0.0
  0
LWPOLYLINE
  5
11c
100
AcDbEntity
  8
Trydent
 62
7
100
AcDbPolyline
 90
2
 70
0
 10
33.157565
 20
-23.658466
 30
0.0
 10
33.217487
 20
-23.598545
 30
0.0
  0
SPLINE
  5
11d
100
AcDbEntity
  8
Trydent
 62
7
100
AcDbSpline
 70
0
 71
3
 72
10
 73
6
 74
4
 40
0.000000
 40
0.000000
 40
0.000000
 40
0.000000
 40
0.487832
 40
0.959375
 40
1.463845
 40
1.463845
 40
1.463845
 40
1.463845
 10
33.217487
 20
-23.598545
 30
0.0
 10
33.315141
 20
-23.463280
 30
0.0
 10
33.507187
 20
-23.197267
 30
0.0
 10
33.467140
 20
-22.668237
 30
0.0
 10
33.269664
 20
-22.405100
 30
0.0
 10
33.167595
 20
-22.269093
 30
0.0
 11
33.217487
 21
-23.598545
 31
0.0
 11
33.454006
 21
-23.171884
 31
0.0
 11
33.428179
 21
-22.701049
 31
0.0
 11
33.167595
 21
-22.269093
 31
0.0
  0
LWPOLYLINE
  5
11e
100
AcDbEntity
  8
Trydent
 62
7
100
AcDbPolyline
 90
4
 70
0
 10
33.167595
 20
-22.269093
 30
0.0
 10
31.095187
 20
-20.150548
 30
0.0
 10
43.723694
 20
-7.522040
 30
0.0
 10
44.376387
 20
-8.168289
 30
0.0
  0
SPLINE
  5
11f
100
AcDbEntity
  8
Trydent
 62
7
100
AcDbSpline
 70
0
 71
3
 72
10
 73
6
 74
4
 40
0.000000
 40
0.000000
 40
0.000000
 40
0.000000
 40
0.291061
 40
0.627258
 40
0.998821
 40
0.998821
 40
0.998821
 40
0.998821
 10
44.376387
 20
-8.168289
 30
0.0
 10
44.466302
 20
-8.214339
 30
0.0
 10
44.660075
 20
-8.313581
 30
0.0
 10
45.002858
 20
-8.168329
 30
0.0
 10
45.145114
 20
-7.979865
 30
0.0
 10
45.219796
 20
-7.880924
 30
0.0
 11
44.376387
 21
-8.168289
 31
0.0
 11
44.650759
 21
-8.265430
 31
0.0
 11
44.968013
 21
-8.154171
 31
0.0
 11
45.219796
 21
-7.880924
 31
0.0
  0
LWPOLYLINE
  5
120
100
AcDbEntity
  8
Trydent
 62
7
100
AcDbPolyline
 90
3
 70
0
 10
45.219796
 20
-7.880924
 30
0.0
 10
46.876334
 20
-4.716690
 30
0.0
 10
48.309292
 20
-1.979637
 30
0.0
  0
SPLINE
  5
121
100
AcDbEntity
  8
Trydent
 62
7
100
AcDbSpline
 70
0
 71
3
 72
10
 73
6
 74
4
 40
0.000000
 40
0.000000
 40
0.000000
 40
0.000000
 40
0.311995
 40
0.557538
 40
0.803020
 40
0.803020
 40
0.803020
 40
0.803020
 10
48.309292
 20
-1.979637
 30
0.0
 10
48.348862
 20
-1.880554
 30
0.0
 10
48.419574
 20
-1.703491
 30
0.0
 10
48.305877
 20
-1.419213
 30
0.0
 10
48.140193
 20
-1.374451
 30
0.0
 10
48.057362
 20
-1.352073
 30
0.0
 11
48.309292
 21
-1.979637
 31
0.0
 11
48.381139
 21
-1.676027
 31
0.0
 11
48.281822
 21
-1.451466
 31
0.0
 11
48.057362
 21
-1.352073
 31
0.0
  0
LWPOLYLINE
  5
122
100
AcDbEntity
  8
Trydent
 62
7
100
AcDbPolyline
 90
1
 70
1
 10
48.057362
 20
-1.352073
 30
0.0
  0
SPLINE
  5
123
100
AcDbEntity
  8
Trydent
 62
7
100
AcDbSpline
 70
0
 71
3
 72
10
 73
6
 74
4
 40
0.000000
 40
0.000000
 40
0.000000
 40
0.000000
 40
0.246325
 40
0.509524
 40
0.780296
 40
0.780296
 40
0.780296
 40
0.780296
 10
15.624950
 20
-10.656555
 30
0.0
 10
15.542857
 20
-10.669226
 30
0.0
 10
15.373047
 20
-10.695434
 30
0.0
 10
15.153299
 20
-10.846260
 30
0.0
 10
15.024249
 20
-10.968077
 30
0.0
 10
14.958808
 20
-11.029850
 30
0.0
 11
15.624950
 21
-10.656555
 31
0.0
 11
15.384821
 21
-10.711459
 31
0.0
 11
15.160614
 21
-10.849316
 31
0.0
 11
14.958808
 21
-11.029850
 31
0.0
  0
LWPOLYLINE
  5
124
100
AcDbEntity
  8
Trydent
 62
7
100
AcDbPolyline
 90
2
 70
0
 10
14.958808
 20
-11.029850
 30
0.0
 10
10.749314
 20
-15.239344
 30
0.0
  0
SPLINE
  5
125
100
AcDbEntity
  8
Trydent
 62
7
100
AcDbSpline
 70
0
 71
3
 72
10
 73
6
 74
4
 40
0.000000
 40
0.000000
 40
0.000000
 40
0.000000
 40
0.502059
 40
0.981375
 40
1.478857
 40
1.478857
 40
1.478857
 40
1.478857
 10
10.749314
 20
-15.239344
 30
0.0
 10
10.647383
 20
-15.375528
 30
0.0
 10
10.448140
 20
-15.641728
 30
0.0
 10
10.435685
 20
-16.177877
 30
0.0
 10
10.631853
 20
-16.446021
 30
0.0
 10
10.731760
 20
-16.582587
 30
0.0
 11
10.749314
 21
-15.239344
 31
0.0
 11
10.493505
 21
-15.671345
 31
0.0
 11
10.485054
 21
-16.150586
 31
0.0
 11
10.731760
 21
-16.582587
 31
0.0
  0
LWPOLYLINE
  5
126
100
AcDbEntity
  8
Trydent
 62
7
100
AcDbPolyline
 90
2
 70
0
 10
10.731760
 20
-16.582587
 30
0.0
 10
10.791686
 20
-16.642512
 30
0.0
  0
SPLINE
  5
127
100
AcDbEntity
  8
Trydent
 62
7
100
AcDbSpline
 70
0
 71
3
 72
10
 73
6
 74
4
 40
0.000000
 40
0.000000
 40
0.000000
 40
0.000000
 40
0.503693
 40
0.991385
 40
1.495079
 40
1.495079
 40
1.495079
 40
1.495079
 10
10.791686
 20
-16.642512
 30
0.0
 10
10.929663
 20
-16.743340
 30
0.0
 10
11.201233
 20
-16.941794
 30
0.0
 10
11.742933
 20
-16.941794
 30
0.0
 10
12.014502
 20
-16.743339
 30
0.0
 10
12.152479
 20
-16.642509
 30
0.0
 11
10.791686
 21
-16.642512
 31
0.0
 11
11.228237
 21
-16.893770
 31
0.0
 11
11.715928
 21
-16.893769
 31
0.0
 11
12.152479
 21
-16.642509
 31
0.0
  0
LWPOLYLINE
  5
128
100
AcDbEntity
  8
Trydent
 62
7
100
AcDbPolyline
 90
4
 70
0
 10
12.152479
 20
-16.642509
 30
0.0
 10
15.660391
 20
-13.134597
 30
0.0
 10
25.464992
 20
-22.939846
 30
0.0
 10
9.238238
 20
-39.151845
 30
0.0
  0
SPLINE
  5
129
100
AcDbEntity
  8
Trydent
 62
7
100
AcDbSpline
 70
0
 71
3
 72
13
 73
9
 74
7
 40
0.000000
 40
0.000000
 40
0.000000
 40
0.000000
 40
0.321299
 40
0.663874
 40
0.985176
 40
1.333411
 40
1.660375
 40
2.008623
 40
2.008623
 40
2.008623
 40
2.008623
 10
9.238238
 20
-39.151845
 30
0.0
 10
9.312214
 20
-39.229292
 30
0.0
 10
9.465065
 20
-39.389314
 30
0.0
 10
9.694601
 20
-39.624172
 30
0.0
 10
9.931889
 20
-39.863995
 30
0.0
 10
10.168208
 20
-40.097439
 30
0.0
 10
10.414418
 20
-40.333598
 30
0.0
 10
10.578724
 20
-40.487418
 30
0.0
 10
10.663467
 20
-40.566753
 30
0.0
 11
9.238238
 21
-39.151845
 31
0.0
 11
9.460594
 21
-39.383773
 31
0.0
 11
9.699815
 21
-39.628989
 31
0.0
 11
9.925991
 21
-39.857199
 31
0.0
 11
10.173866
 21
-40.101790
 31
0.0
 11
10.409736
 21
-40.328221
 31
0.0
 11
10.663467
 21
-40.566753
 31
0.0
  0
LWPOLYLINE
  5
12a
100
AcDbEntity
  8
Trydent
 62
7
100
AcDbPolyline
 90
3
 70
0
 10
10.663467
 20
-40.566753
 30
0.0
 10
26.885708
 20
-24.359915
 30
0.0
 10
37.409444
 20
-34.883651
 30
0.0
  0
SPLINE
  5
12b
100
AcDbEntity
  8
Trydent
 62
7
100
AcDbSpline
 70
0
 71
3
 72
10
 73
6
 74
4
 40
0.000000
 40
0.000000
 40
0.000000
 40
0.000000
 40
0.503693
 40
0.991383
 40
1.495078
 40
1.495078
 40
1.495078
 40
1.495078
 10
37.409444
 20
-34.883651
 30
0.0
 10
37.547421
 20
-34.984479
 30
0.0
 10
37.818990
 20
-35.182933
 30
0.0
 10
38.360689
 20
-35.182933
 30
0.0
 10
38.632259
 20
-34.984479
 30
0.0
 10
38.770236
 20
-34.883650
 30
0.0
 11
37.409444
 21
-34.883651
 31
0.0
 11
37.845994
 21
-35.134908
 31
0.0
 11
38.333685
 21
-35.134908
 31
0.0
 11
38.770236
 21
-34.883650
 31
0.0
  0
LWPOLYLINE
  5
12c
100
AcDbEntity
  8
Trydent
 62
7
100
AcDbPolyline
 90
2
 70
0
 10
38.770236
 20
-34.883650
 30
0.0
 10
38.830161
 20
-34.823725
 30
0.0
  0
SPLINE
  5
12d
100
AcDbEntity
  8
Trydent
 62
7
100
AcDbSpline
 70
0
 71
3
 72
10
 73
6
 74
4
 40
0.000000
 40
0.000000
 40
0.000000
 40
0.000000
 40
0.503693
 40
0.991385
 40
1.495079
 40
1.495079
 40
1.495079
 40
1.495079
 10
38.830161
 20
-34.823725
 30
0.0
 10
38.930990
 20
-34.685748
 30
0.0
 10
39.129445
 20
-34.414179
 30
0.0
 10
39.129445
 20
-33.872479
 30
0.0
 10
38.930991
 20
-33.600908
 30
0.0
 10
38.830163
 20
-33.462931
 30
0.0
 11
38.830161
 21
-34.823725
 31
0.0
 11
39.081420
 21
-34.387175
 31
0.0
 11
39.081420
 21
-33.899483
 31
0.0
 11
38.830163
 21
-33.462931
 31
0.0
  0
LWPOLYLINE
  5
12e
100
AcDbEntity
  8
Trydent
 62
7
100
AcDbPolyline
 90
2
 70
0
 10
38.830163
 20
-33.462931
 30
0.0
 10
16.361973
 20
-11.029850
 30
0.0
  0
SPLINE
  5
12f
100
AcDbEntity
  8
Trydent
 62
7
100
AcDbSpline
 70
0
 71
3
 72
10
 73
6
 74
4
 40
0.000000
 40
0.000000
 40
0.000000
 40
0.000000
 40
0.284728
 40
0.577539
 40
0.841807
 40
0.841807
 40
0.841807
 40
0.841807
 10
16.361973
 20
-11.029850
 30
0.0
 10
16.290679
 20
-10.967314
 30
0.0
 10
16.146069
 20
-10.840465
 30
0.0
 10
15.897531
 20
-10.698009
 30
0.0
 10
15.712666
 20
-10.669890
 30
0.0
 10
15.624969
 20
-10.656552
 30
0.0
 11
16.361973
 21
-11.029850
 31
0.0
 11
16.141797
 21
-10.849316
 31
0.0
 11
15.883470
 21
-10.711455
 31
0.0
 11
15.624969
 21
-10.656552
 31
0.0
  0
LWPOLYLINE
  5
130
100
AcDbEntity
  8
Trydent
 62
7
100
AcDbPolyline
 90
1
 70
1
 10
15.624969
 20
-10.656552
 30
0.0
  0
SPLINE
  5
131
100
AcDbEntity
  8
Trydent
 62
7
100
AcDbSpline
 70
0
 71
3
 72
10
 73
6
 74
4
 40
0.000000
 40
0.000000
 40
0.000000
 40
0.000000
 40
0.094693
 40
0.199091
 40
0.315617
 40
0.315617
 40
0.315617
 40
0.315617
 10
35.529998
 20
2.757565
 30
0.0
 10
35.498348
 20
2.757908
 30
0.0
 10
35.431805
 20
2.758631
 30
0.0
 10
35.328386
 20
2.733398
 30
0.0
 10
35.261699
 20
2.701976
 30
0.0
 10
35.226526
 20
2.685402
 30
0.0
 11
35.529998
 21
2.757565
 31
0.0
 11
35.435344
 21
2.754831
 31
0.0
 11
35.333634
 21
2.731295
 31
0.0
 11
35.226526
 21
2.685402
 31
0.0
  0
LWPOLYLINE
  5
132
100
AcDbEntity
  8
Trydent
 62
7
100
AcDbPolyline
 90
3
 70
0
 10
35.226526
 20
2.685402
 30
0.0
 10
32.488828
 20
1.255666
 30
0.0
 10
29.325239
 20
-0.404091
 30
0.0
  0
SPLINE
  5
133
100
AcDbEntity
  8
Trydent
 62
7
100
AcDbSpline
 70
0
 71
3
 72
10
 73
6
 74
4
 40
0.000000
 40
0.000000
 40
0.000000
 40
0.000000
 40
0.371138
 40
0.710016
 40
1.005577
 40
1.005577
 40
1.005577
 40
1.005577
 10
29.325239
 20
-0.404091
 30
0.0
 10
29.223231
 20
-0.475465
 30
0.0
 10
29.028083
 20
-0.612010
 30
0.0
 10
28.889525
 20
-0.961581
 30
0.0
 10
28.990288
 20
-1.156633
 30
0.0
 10
29.037229
 20
-1.247500
 30
0.0
 11
29.325239
 21
-0.404091
 31
0.0
 11
29.045806
 21
-0.648346
 31
0.0
 11
28.937245
 21
-0.969364
 31
0.0
 11
29.037229
 21
-1.247500
 31
0.0
  0
LWPOLYLINE
  5
134
100
AcDbEntity
  8
Trydent
 62
7
100
AcDbPolyline
 90
4
 70
0
 10
29.037229
 20
-1.247500
 30
0.0
 10
29.692024
 20
-1.909348
 30
0.0
 10
21.273020
 20
-10.328354
 30
0.0
 10
19.166249
 20
-8.234631
 30
0.0
  0
SPLINE
  5
135
100
AcDbEntity
  8
Trydent
 62
7
100
AcDbSpline
 70
0
 71
3
 72
10
 73
6
 74
4
 40
0.000000
 40
0.000000
 40
0.000000
 40
0.000000
 40
0.503695
 40
0.991387
 40
1.495081
 40
1.495081
 40
1.495081
 40
1.495081
 10
19.166249
 20
-8.234631
 30
0.0
 10
19.028272
 20
-8.133802
 30
0.0
 10
18.756702
 20
-7.935347
 30
0.0
 10
18.215001
 20
-7.935347
 30
0.0
 10
17.943431
 20
-8.133802
 30
0.0
 10
17.805454
 20
-8.234631
 30
0.0
 11
19.166249
 21
-8.234631
 31
0.0
 11
18.729697
 21
-7.983372
 31
0.0
 11
18.242006
 21
-7.983372
 31
0.0
 11
17.805454
 21
-8.234631
 31
0.0
  0
LWPOLYLINE
  5
136
100
AcDbEntity
  8
Trydent
 62
7
100
AcDbPolyline
 90
2
 70
0
 10
17.805454
 20
-8.234631
 30
0.0
 10
17.745529
 20
-8.294556
 30
0.0
  0
SPLINE
  5
137
100
AcDbEntity
  8
Trydent
 62
7
100
AcDbSpline
 70
0
 71
3
 72
10
 73
6
 74
4
 40
0.000000
 40
0.000000
 40
0.000000
 40
0.000000
 40
0.503768
 40
0.991512
 40
1.495168
 40
1.495168
 40
1.495168
 40
1.495168
 10
17.745529
 20
-8.294556
 30
0.0
 10
17.644687
 20
-8.432547
 30
0.0
 10
17.446211
 20
-8.704140
 30
0.0
 10
17.446078
 20
-9.245900
 30
0.0
 10
17.644650
 20
-9.517414
 30
0.0
 10
17.745530
 20
-9.655350
 30
0.0
 11
17.745529
 21
-8.294556
 31
0.0
 11
17.494216
 21
-8.731161
 31
0.0
 11
17.494163
 21
-9.218906
 31
0.0
 11
17.745530
 21
-9.655350
 31
0.0
  0
LWPOLYLINE
  5
138
100
AcDbEntity
  8
Trydent
 62
7
100
AcDbPolyline
 90
2
 70
0
 10
17.745530
 20
-9.655350
 30
0.0
 10
23.389892
 20
-15.292483
 30
0.0
  0
SPLINE
  5
139
100
AcDbEntity
  8
Trydent
 62
7
100
AcDbSpline
 70
0
 71
3
 72
10
 73
6
 74
4
 40
0.000000
 40
0.000000
 40
0.000000
 40
0.000000
 40
0.503735
 40
0.991372
 40
1.494994
 40
1.494994
 40
1.494994
 40
1.494994
 10
23.389892
 20
-15.292483
 30
0.0
 10
23.527910
 20
-15.393262
 30
0.0
 10
23.799536
 20
-15.591600
 30
0.0
 10
24.341176
 20
-15.591734
 30
0.0
 10
24.612723
 20
-15.393300
 30
0.0
 10
24.750686
 20
-15.292484
 30
0.0
 11
23.389892
 21
-15.292483
 31
0.0
 11
23.826551
 21
-15.543636
 31
0.0
 11
24.314188
 21
-15.543689
 31
0.0
 11
24.750686
 21
-15.292484
 31
0.0
  0
LWPOLYLINE
  5
13a
100
AcDbEntity
  8
Trydent
 62
7
100
AcDbPolyline
 90
2
 70
0
 10
24.750686
 20
-15.292484
 30
0.0
 10
24.809963
 20
-15.232563
 30
0.0
  0
SPLINE
  5
13b
100
AcDbEntity
  8
Trydent
 62
7
100
AcDbSpline
 70
0
 71
3
 72
10
 73
6
 74
4
 40
0.000000
 40
0.000000
 40
0.000000
 40
0.000000
 40
0.503694
 40
0.991385
 40
1.495079
 40
1.495079
 40
1.495079
 40
1.495079
 10
24.809963
 20
-15.232563
 30
0.0
 10
24.910792
 20
-15.094586
 30
0.0
 10
25.109246
 20
-14.823016
 30
0.0
 10
25.109245
 20
-14.281317
 30
0.0
 10
24.910792
 20
-14.009746
 30
0.0
 10
24.809964
 20
-13.871769
 30
0.0
 11
24.809963
 21
-15.232563
 31
0.0
 11
25.061221
 21
-14.796012
 31
0.0
 11
25.061221
 21
-14.308320
 31
0.0
 11
24.809964
 21
-13.871769
 31
0.0
  0
LWPOLYLINE
  5
13c
100
AcDbEntity
  8
Trydent
 62
7
100
AcDbPolyline
 90
4
 70
0
 10
24.809964
 20
-13.871769
 30
0.0
 10
22.676214
 20
-11.731495
 30
0.0
 10
31.095192
 20
-3.312515
 30
0.0
 10
31.849025
 20
-4.059295
 30
0.0
  0
SPLINE
  5
13d
100
AcDbEntity
  8
Trydent
 62
7
100
AcDbSpline
 70
0
 71
3
 72
10
 73
6
 74
4
 40
0.000000
 40
0.000000
 40
0.000000
 40
0.000000
 40
0.291003
 40
0.627304
 40
0.998988
 40
0.998988
 40
0.998988
 40
0.998988
 10
31.849025
 20
-4.059295
 30
0.0
 10
31.938951
 20
-4.105294
 30
0.0
 10
32.132801
 20
-4.204453
 30
0.0
 10
32.475486
 20
-4.058785
 30
0.0
 10
32.617747
 20
-3.870261
 30
0.0
 10
32.692433
 20
-3.771288
 30
0.0
 11
31.849025
 21
-4.059295
 31
0.0
 11
32.123395
 21
-4.156269
 31
0.0
 11
32.440649
 21
-4.044700
 31
0.0
 11
32.692433
 21
-3.771288
 31
0.0
  0
LWPOLYLINE
  5
13e
100
AcDbEntity
  8
Trydent
 62
7
100
AcDbPolyline
 90
3
 70
0
 10
32.692433
 20
-3.771288
 30
0.0
 10
34.348994
 20
-0.607026
 30
0.0
 10
35.781952
 20
2.130027
 30
0.0
  0
SPLINE
  5
13f
100
AcDbEntity
  8
Trydent
 62
7
100
AcDbSpline
 70
0
 71
3
 72
10
 73
6
 74
4
 40
0.000000
 40
0.000000
 40
0.000000
 40
0.000000
 40
0.311996
 40
0.557539
 40
0.803018
 40
0.803018
 40
0.803018
 40
0.803018
 10
35.781952
 20
2.130027
 30
0.0
 10
35.821522
 20
2.229110
 30
0.0
 10
35.892235
 20
2.406173
 30
0.0
 10
35.778538
 20
2.690451
 30
0.0
 10
35.612856
 20
2.735213
 30
0.0
 10
35.530025
 20
2.757591
 30
0.0
 11
35.781952
 21
2.130027
 31
0.0
 11
35.853800
 21
2.433638
 31
0.0
 11
35.754483
 21
2.658198
 31
0.0
 11
35.530025
 21
2.757591
 31
0.0
  0
LWPOLYLINE
  5
140
100
AcDbEntity
  8
Trydent
 62
7
100
AcDbPolyline
 90
1
 70
1
 10
35.530025
 20
2.757591
 30
0.0
  0
ENDSEC
  0
SECTION
  2
OBJECTS
  0
DICTIONARY
  5
C
330
0
100
AcDbDictionary
  3
ACAD_GROUP
350
D
  3
ACAD_MLINESTYLE
350
17
  0
DICTIONARY
  5
D
330
C
100
AcDbDictionary
  0
DICTIONARY
  5
1A
330
C
100
AcDbDictionary
  0
DICTIONARY
  5
17
330
C
100
AcDbDictionary
  3
STANDARD
350
18
  0
DICTIONARY
  5
19
330
C
100
AcDbDictionary
  0
ENDSEC
  0
EOF
