<?xml version="1.0" encoding="UTF-8" standalone="no"?>
<svg
   xmlns:dc="http://purl.org/dc/elements/1.1/"
   xmlns:cc="http://creativecommons.org/ns#"
   xmlns:rdf="http://www.w3.org/1999/02/22-rdf-syntax-ns#"
   xmlns:svg="http://www.w3.org/2000/svg"
   xmlns="http://www.w3.org/2000/svg"
   xmlns:sodipodi="http://sodipodi.sourceforge.net/DTD/sodipodi-0.dtd"
   xmlns:inkscape="http://www.inkscape.org/namespaces/inkscape"
   inkscape:export-ydpi="96"
   inkscape:export-xdpi="96"
   inkscape:export-filename="/home/not7cd/Pictures/hs/logo_accent.png"
   sodipodi:docname="logo_cutout.svg"
   width="339.80887"
   height="339.80887"
   viewBox="0 0 89.907762 89.90776"
   version="1.1"
   id="svg8"
   inkscape:version="1.0beta2 (2b71d25, 2019-12-03)">
  <defs
     id="defs2">
    <rect
       x="77.179755"
       y="2.6711632"
       width="94.642188"
       height="48.232231"
       id="rect866" />
  </defs>
  <sodipodi:namedview
     fit-margin-bottom="0"
     fit-margin-right="0"
     fit-margin-left="0"
     fit-margin-top="0"
     id="base"
     pagecolor="#ffffff"
     bordercolor="#666666"
     borderopacity="1.0"
     inkscape:pageopacity="0.0"
     inkscape:pageshadow="2"
     inkscape:zoom="0.85744158"
     inkscape:cx="326.83399"
     inkscape:cy="216.45693"
     inkscape:document-units="px"
     inkscape:current-layer="layer3"
     inkscape:document-rotation="0"
     showgrid="true"
     showguides="true"
     units="px"
     inkscape:guide-bbox="true"
     inkscape:snap-grids="true"
     inkscape:snap-bbox="true"
     inkscape:bbox-nodes="true"
     inkscape:snap-global="true"
     inkscape:window-width="1366"
     inkscape:window-height="704"
     inkscape:window-x="0"
     inkscape:window-y="27"
     inkscape:window-maximized="1"
     inkscape:object-paths="true"
     inkscape:snap-others="false"
     inkscape:snap-page="false"
     inkscape:pagecheckerboard="true">
    <inkscape:grid
       empopacity="0.25098039"
       empcolor="#ff3f3f"
       opacity="0.1254902"
       color="#ff3f3f"
       type="xygrid"
       id="grid18"
       originx="19.857547"
       originy="19.77505"
       spacingx="1.3229167"
       spacingy="1.3229167"
       empspacing="19" />
    <sodipodi:guide
       id="guide1525"
       orientation="0.70710678,-0.70710678"
       position="13.242963,13.247293" />
    <sodipodi:guide
       id="guide1529"
       orientation="-0.70710678,-0.70710678"
       position="13.242963,76.747294" />
  </sodipodi:namedview>
  <metadata
     id="metadata5">
    <rdf:RDF>
      <cc:Work
         rdf:about="">
        <dc:format>image/svg+xml</dc:format>
        <dc:type
           rdf:resource="http://purl.org/dc/dcmitype/StillImage" />
        <dc:title></dc:title>
      </cc:Work>
    </rdf:RDF>
  </metadata>
  <g
     transform="translate(18.53463,18.452135)"
     style="display:inline"
     inkscape:label="Background"
     id="layer3"
     inkscape:groupmode="layer">
    <path
       transform="matrix(0.26458333,0,0,0.26458333,-18.53463,-18.452135)"
       d="M 169.50977 9.2871094 A 160.61709 160.61709 0 0 0 56.330078 56.330078 A 160.61709 160.61709 0 0 0 52.867188 279.9043 L 127.61523 205.17383 L 78.205078 155.76172 L 60.527344 173.43945 C 58.62807 175.33874 55.569195 175.33873 53.669922 173.43945 L 53.369141 173.13867 C 51.469868 171.2394 51.55776 168.26842 53.457031 166.36914 L 74.669922 145.15625 C 75.619561 144.2066 76.78802 143.27539 78.027344 143.27539 C 79.266681 143.27538 80.792554 144.20662 81.742188 145.15625 L 194.9668 258.20508 C 196.86607 260.10436 196.86607 263.16323 194.9668 265.0625 L 194.66406 265.36328 C 192.76478 267.26256 189.70591 267.26255 187.80664 265.36328 L 134.77344 212.33008 L 60.027344 287.05859 A 160.61709 160.61709 0 0 0 283.47852 283.47852 A 160.61709 160.61709 0 0 0 283.47852 56.330078 A 160.61709 160.61709 0 0 0 169.50977 9.2871094 z M 177.98242 75.675781 C 178.10418 75.66605 178.22183 75.666773 178.33594 75.675781 C 179.70507 75.783802 180.47613 77.186171 179.60547 78.837891 L 172.38477 92.630859 L 164.03711 108.57617 C 163.11526 110.28334 160.87969 111.11994 159.78711 110.02734 L 155.98828 106.26562 L 113.56055 148.69141 L 124.31445 159.47656 C 126.21371 161.37584 126.21372 164.43471 124.31445 166.33398 L 124.01562 166.63672 C 122.11635 168.536 119.0587 168.53479 117.1582 166.63672 L 88.712891 138.22852 C 86.812399 136.33045 86.813612 133.27037 88.712891 131.37109 L 89.015625 131.06836 C 90.914903 129.16908 93.973769 129.16908 95.873047 131.06836 L 106.49023 141.62109 L 148.91602 99.193359 L 145.61719 95.859375 C 144.52458 94.766772 145.29293 92.443923 147.06836 91.607422 L 163.00977 83.244141 L 176.80664 76.039062 C 177.21956 75.821405 177.61716 75.704974 177.98242 75.675781 z M 241.11133 96.384766 C 241.23308 96.375339 241.3527 96.375764 241.4668 96.384766 C 242.83594 96.492789 243.60698 97.897118 242.73633 99.548828 L 235.51367 113.3418 L 227.16602 129.28711 C 226.24416 130.99429 224.00862 131.82698 222.91602 130.73438 L 219.62695 127.47852 L 155.98828 191.11719 L 166.43164 201.79297 C 168.28999 203.73228 168.58091 206.59486 166.68164 208.49414 L 166.38086 208.79492 C 164.48158 210.69419 161.42271 210.69419 159.52344 208.79492 L 131.23828 180.51172 C 129.33901 178.61244 129.33901 175.55553 131.23828 173.65625 L 131.54102 173.35547 C 133.44029 171.4562 136.51477 171.44071 138.39844 173.35547 L 148.91602 184.04688 L 212.44531 120.30273 L 208.74609 116.56836 C 207.65351 115.47577 208.42185 113.15095 210.19727 112.31445 L 226.14453 103.95117 L 239.9375 96.746094 C 240.35042 96.528427 240.74607 96.413046 241.11133 96.384766 z M 263.18945 160.52734 C 264.55858 160.63536 265.32964 162.03969 264.45898 163.69141 L 257.23828 177.48438 L 248.88867 193.42969 C 247.96682 195.13685 245.73125 195.97346 244.63867 194.88086 L 240.83984 191.11719 L 198.41406 233.54297 L 209.16602 244.33008 C 211.06528 246.22936 211.06528 249.28822 209.16602 251.1875 L 208.86719 251.48828 C 206.96791 253.38756 203.91026 253.38635 202.00977 251.48828 L 173.56641 223.08203 C 171.66592 221.18397 171.66713 218.12389 173.56641 216.22461 L 173.86914 215.92188 C 175.76842 214.02259 178.82728 214.02259 180.72656 215.92188 L 191.34375 226.47266 L 233.76953 184.04688 L 230.46875 180.71094 C 229.37615 179.61833 230.14644 177.29744 231.92188 176.46094 L 247.86328 168.09766 L 261.66016 160.89258 C 262.21072 160.60237 262.73303 160.49131 263.18945 160.52734 z "
       style="display:inline;fill:#000000;fill-opacity:1;stroke:none;stroke-width:0.481852;stroke-miterlimit:4;stroke-dasharray:none;paint-order:markers stroke fill"
       id="circle1522" />
  </g>
  <g
     transform="translate(18.53463,18.452135)"
     style="display:inline"
     inkscape:groupmode="layer"
     id="layer2"
     inkscape:label="Trydent">
    <circle
       id="circle255"
       cy="26.461967"
       cx="26.4487"
       class="cls-3"
       style="fill:#4d4d4d;stroke-width:0.04;stroke-miterlimit:4;stroke-dasharray:none"
       r="0" />
    <g
       style="display:inline;fill:#ffffff;stroke:none;stroke-width:0.04;stroke-miterlimit:4;stroke-dasharray:none"
       transform="matrix(1.1755177,1.1755177,-1.1755177,1.1755177,38.964276,-24.400553)"
       id="use1262" />
    <g
       style="display:inline;fill:#ffffff;stroke:none;stroke-width:0.04;stroke-miterlimit:4;stroke-dasharray:none"
       transform="matrix(1.1755177,1.1755177,-1.1755177,1.1755177,26.287415,-34.947638)"
       id="g83" />
    <g
       id="g1520"
       transform="matrix(1.1755177,1.1755177,-1.1755177,1.1755177,16.513626,-46.851187)"
       style="display:inline;fill:#ffffff;stroke:none;stroke-width:0.04;stroke-miterlimit:4;stroke-dasharray:none" />
  </g>
  <g
     transform="translate(18.53463,18.452135)"
     style="display:none;opacity:1"
     inkscape:label="Layer 1"
     id="layer4"
     inkscape:groupmode="layer">
    <g
       transform="matrix(0.27239732,0,0,0.27239732,-193.73637,-73.769521)"
       id="logo_2-8"
       data-name="logo_2"
       style="display:inline">
      <circle
         style="fill:#666666"
         cx="808.10999"
         cy="368.67001"
         r="97.379997"
         id="circle1383" />
      <rect
         style="fill:#ffffff"
         class="cls-1"
         x="783.79999"
         y="326.38"
         width="5.9699998"
         height="29.9"
         rx="2.8399999"
         transform="rotate(45,786.79232,341.34005)"
         id="rect1385" />
      <path
         style="fill:#ffffff"
         inkscape:connector-curvature="0"
         class="cls-1"
         d="M 793.19,334.93 789,330.78 c -0.64,-0.64 -0.19,-1.95 0.85,-2.49 l 9.34,-4.9 8.08,-4.23 c 1.29,-0.67 2.32,0.36 1.65,1.65 l -4.23,8.08 -4.9,9.34 c -0.54,1 -1.85,1.49 -2.49,0.85 z"
         id="path1387" />
      <rect
         style="fill:#ffffff"
         class="cls-1"
         x="774.82001"
         y="336.01001"
         width="5.9299998"
         height="28.66"
         rx="2.8399999"
         transform="rotate(-45,777.77374,350.33557)"
         id="rect1389" />
      <rect
         style="fill:#ffffff"
         class="cls-1"
         x="751.02002"
         y="345.84"
         width="5.9299998"
         height="24.43"
         rx="2.8399999"
         transform="rotate(-135,753.98593,358.05694)"
         id="rect1391" />
      <rect
         style="fill:#ffffff"
         class="cls-1"
         x="801.13"
         y="362.32001"
         width="5.9299998"
         height="28.66"
         rx="2.8399999"
         transform="rotate(-45,804.09479,376.65303)"
         id="rect1393" />
      <rect
         style="fill:#ffffff"
         class="cls-1"
         x="827.57001"
         y="388.88"
         width="5.9299998"
         height="28.41"
         rx="2.8399999"
         transform="rotate(-45,830.52363,403.08585)"
         id="rect1395" />
      <rect
         style="fill:#ffffff"
         class="cls-1"
         x="819.63"
         y="328.57001"
         width="5.9699998"
         height="58.650002"
         rx="2.8399999"
         transform="rotate(45,822.61387,357.89782)"
         id="rect1397" />
      <path
         style="fill:#ffffff"
         inkscape:connector-curvature="0"
         class="cls-1"
         d="m 840.07,340.44 -4.14,-4.15 c -0.64,-0.64 -0.2,-2 0.85,-2.49 l 9.34,-4.9 8.07,-4.23 c 1.29,-0.67 2.32,0.36 1.65,1.65 l -4.23,8.08 -4.89,9.34 c -0.55,1 -1.86,1.49 -2.5,0.85 z"
         id="path1399" />
      <rect
         style="fill:#ffffff"
         class="cls-1"
         x="836.10999"
         y="379.75"
         width="5.9699998"
         height="29.9"
         rx="2.8399999"
         transform="rotate(45,839.10112,394.69707)"
         id="rect1401" />
      <path
         style="fill:#ffffff"
         inkscape:connector-curvature="0"
         class="cls-1"
         d="m 845.5,388.3 -4.15,-4.15 c -0.64,-0.64 -0.19,-1.95 0.85,-2.5 l 9.34,-4.89 8.08,-4.23 c 1.29,-0.68 2.32,0.36 1.65,1.65 l -4.27,8.07 -4.89,9.34 c -0.55,1.05 -1.86,1.49 -2.5,0.85 z"
         id="path1403" />
      <rect
         style="fill:#ffffff"
         class="cls-1"
         x="791.92999"
         y="334.31"
         width="5.9299998"
         height="103.14"
         rx="2.8399999"
         transform="rotate(-45,794.89779,385.88256)"
         id="rect1405" />
      <rect
         style="fill:#ffffff"
         class="cls-1"
         x="778.03003"
         y="332.77615"
         width="5.9299927"
         height="87.793861"
         rx="2.8399999"
         transform="rotate(-135,780.99096,399.79104)"
         id="rect1407" />
    </g>
  </g>
  <g
     transform="translate(18.53463,18.452135)"
     inkscape:label="Guides"
     inkscape:groupmode="layer"
     id="layer1"
     style="display:none">
    <circle
       style="fill:none;stroke:#0000ff;stroke-width:0.134862;stroke-miterlimit:4;stroke-dasharray:none;paint-order:markers stroke fill"
       id="path34"
       cx="26.416187"
       cy="26.500477"
       r="44.95388" />
    <rect
       style="fill:none;stroke:#0000ff;stroke-width:0.13429;stroke-miterlimit:4;stroke-dasharray:none;paint-order:markers stroke fill"
       id="rect859"
       width="63.337074"
       height="63.337074"
       x="-5.2168536"
       y="-5.2245226" />
    <rect
       style="fill:none;stroke:#0000ff;stroke-width:0.134578;stroke-miterlimit:4;stroke-dasharray:none;paint-order:markers stroke fill"
       id="rect865"
       width="44.844589"
       height="44.844589"
       x="4.0360394"
       y="4.0360384" />
    <ellipse
       ry="31.68273"
       rx="31.636749"
       cx="26.412355"
       cy="26.458334"
       id="circle1531"
       style="fill:none;stroke:#0000ff;stroke-width:0.134544;stroke-miterlimit:4;stroke-dasharray:none;paint-order:markers stroke fill" />
    <ellipse
       style="fill:none;stroke:#0000ff;stroke-width:0.104059;stroke-miterlimit:4;stroke-dasharray:none;paint-order:markers stroke fill"
       id="ellipse1533"
       cy="24.556459"
       cx="28.39673"
       rx="24.467909"
       ry="24.504429" />
  </g>
</svg>
