<?xml version="1.0" encoding="UTF-8" standalone="no"?>
<svg
   xmlns:dc="http://purl.org/dc/elements/1.1/"
   xmlns:cc="http://creativecommons.org/ns#"
   xmlns:rdf="http://www.w3.org/1999/02/22-rdf-syntax-ns#"
   xmlns:svg="http://www.w3.org/2000/svg"
   xmlns="http://www.w3.org/2000/svg"
   xmlns:sodipodi="http://sodipodi.sourceforge.net/DTD/sodipodi-0.dtd"
   xmlns:inkscape="http://www.inkscape.org/namespaces/inkscape"
   inkscape:version="1.0beta2 (2b71d25, 2019-12-03)"
   id="svg8"
   version="1.1"
   viewBox="0 0 292.38835 90.284877"
   height="341.23419"
   width="1105.0898"
   sodipodi:docname="logo_text_mono.svg"
   inkscape:export-filename="/home/not7cd/Pictures/hs/logo_text_mono_black.png"
   inkscape:export-xdpi="96"
   inkscape:export-ydpi="96">
  <defs
     id="defs2">
    <rect
       id="rect866"
       height="48.232231"
       width="94.642189"
       y="2.6711631"
       x="77.179756" />
  </defs>
  <sodipodi:namedview
     inkscape:snap-nodes="false"
     inkscape:snap-bbox-midpoints="true"
     inkscape:pagecheckerboard="true"
     inkscape:snap-page="false"
     inkscape:snap-others="false"
     inkscape:object-paths="true"
     inkscape:window-maximized="1"
     inkscape:window-y="27"
     inkscape:window-x="0"
     inkscape:window-height="704"
     inkscape:window-width="1366"
     inkscape:snap-global="true"
     inkscape:bbox-nodes="true"
     inkscape:snap-bbox="true"
     inkscape:snap-grids="true"
     inkscape:guide-bbox="true"
     units="px"
     showguides="true"
     showgrid="true"
     inkscape:document-rotation="0"
     inkscape:current-layer="layer2"
     inkscape:document-units="px"
     inkscape:cy="233.59958"
     inkscape:cx="261.28394"
     inkscape:zoom="0.91734438"
     inkscape:pageshadow="2"
     inkscape:pageopacity="0.0"
     borderopacity="1.0"
     bordercolor="#666666"
     pagecolor="#ffffff"
     id="base"
     fit-margin-top="10"
     fit-margin-left="10"
     fit-margin-right="50"
     fit-margin-bottom="10"
     lock-margins="false">
    <inkscape:grid
       empspacing="19"
       spacingy="1.3229167"
       spacingx="1.3229167"
       originy="19.963607"
       originx="20.046106"
       id="grid18"
       type="xygrid"
       color="#ff3f3f"
       opacity="0.1254902"
       empcolor="#ff3f3f"
       empopacity="0.25098039" />
    <sodipodi:guide
       position="13.431523,13.435852"
       orientation="0.70710678,-0.70710678"
       id="guide1525" />
    <sodipodi:guide
       position="13.431523,76.935854"
       orientation="-0.70710678,-0.70710678"
       id="guide1529" />
  </sodipodi:namedview>
  <metadata
     id="metadata5">
    <rdf:RDF>
      <cc:Work
         rdf:about="">
        <dc:format>image/svg+xml</dc:format>
        <dc:type
           rdf:resource="http://purl.org/dc/dcmitype/StillImage" />
        <dc:title></dc:title>
      </cc:Work>
    </rdf:RDF>
  </metadata>
  <g
     inkscape:groupmode="layer"
     id="layer3"
     inkscape:label="Background"
     style="display:inline"
     transform="translate(18.723188,18.640692)" />
  <g
     inkscape:label="Trydent"
     id="layer2"
     inkscape:groupmode="layer"
     style="display:inline"
     transform="translate(18.723188,18.640692)">
    <path
       inkscape:connector-curvature="0"
       d="M 26.353796,-16.038387 A 42.496604,42.496604 0 0 0 -3.5916643,-3.5916016 42.496604,42.496604 0 0 0 -4.5078873,55.56241 L 15.269199,35.789974 2.1960967,22.716353 l -4.677234,4.677233 c -0.502516,0.50252 -1.311844,0.502518 -1.81436,0 l -0.07958,-0.07958 c -0.502516,-0.502516 -0.479261,-1.288587 0.02325,-1.791105 l 5.612578,-5.612577 c 0.251258,-0.251262 0.560413,-0.497644 0.888318,-0.497644 0.327908,-3e-6 0.731628,0.246387 0.982885,0.497644 L 33.089302,49.821158 c 0.502515,0.502518 0.502515,1.311844 0,1.814359 l -0.0801,0.07958 c -0.502518,0.502517 -1.311844,0.502515 -1.814359,0 L 17.163142,37.683398 -2.6134293,57.455316 a 42.496604,42.496604 0 0 0 59.1214563,-0.947227 42.496604,42.496604 0 0 0 0,-60.0996906 42.496604,42.496604 0 0 0 -30.154231,-12.4467854 z m 2.241722,17.5653359 c 0.03221,-0.00257 0.06334,-0.00238 0.09353,0 0.362249,0.02858 0.566259,0.399624 0.335897,0.8366415 l -1.910472,3.6493894 -2.208652,4.2188632 c -0.243906,0.451689 -0.8354,0.673039 -1.124479,0.383956 l -1.005107,-0.9952888 -11.22567,11.2251568 2.845303,2.853571 c 0.502512,0.502518 0.502515,1.311844 0,1.814359 l -0.07907,0.0801 c -0.502515,0.502518 -1.311518,0.502198 -1.814358,0 L 4.9762891,18.077361 c -0.502839,-0.502198 -0.502518,-1.311844 0,-1.814362 l 0.0801,-0.0801 c 0.502517,-0.502518 1.311842,-0.502518 1.814359,0 L 9.6798789,18.974978 20.905033,7.7493072 20.032218,6.8671913 C 19.743131,6.5781068 19.946424,5.9635197 20.416173,5.7421954 l 4.217831,-2.2127847 3.650422,-1.9063438 c 0.109252,-0.057589 0.21445,-0.088394 0.311092,-0.096118 z M 45.298375,7.006201 c 0.03221,-0.00249 0.06386,-0.00238 0.09405,0 0.362252,0.028581 0.566256,0.4001431 0.335897,0.8371582 l -1.910996,3.6493908 -2.208649,4.218863 c -0.243909,0.451691 -0.835395,0.672007 -1.124479,0.382923 l -0.870233,-0.861446 -16.837731,16.837731 2.763139,2.824634 c 0.491688,0.513109 0.568661,1.2705 0.06615,1.773017 l -0.07958,0.07958 c -0.502517,0.502515 -1.311843,0.502515 -1.814359,0 l -7.483781,-7.483263 c -0.502516,-0.502518 -0.502516,-1.311326 0,-1.813843 l 0.0801,-0.07958 c 0.502515,-0.502515 1.315971,-0.506613 1.814359,0 l 2.782771,2.828769 16.808791,-16.865639 -0.978752,-0.988052 c -0.289079,-0.289082 -0.08579,-0.90419 0.383958,-1.125514 l 4.219379,-2.2127848 3.64939,-1.9063428 c 0.109252,-0.057591 0.213934,-0.088119 0.310576,-0.095601 z m 5.841502,16.971056 c 0.362249,0.02858 0.566259,0.400142 0.335897,0.83716 l -1.910477,3.64939 -2.209168,4.218863 c -0.243906,0.451686 -0.8354,0.673039 -1.124479,0.383955 l -1.005107,-0.995804 -11.225154,11.225154 2.844789,2.85409 c 0.502513,0.502517 0.502513,1.311841 0,1.814359 l -0.07906,0.07958 c -0.502518,0.502518 -1.311521,0.502198 -1.814359,0 l -7.525639,-7.51582 c -0.502838,-0.502195 -0.502518,-1.311841 0,-1.814359 l 0.0801,-0.0801 c 0.502518,-0.502521 1.311842,-0.502521 1.814359,0 l 2.809132,2.79156 11.225154,-11.225154 -0.873331,-0.882634 c -0.289084,-0.289086 -0.08528,-0.903155 0.384474,-1.124479 l 4.217828,-2.212785 3.650425,-1.906344 c 0.145669,-0.07678 0.283863,-0.106169 0.404624,-0.09664 z"
       style="display:inline;fill:#000000;fill-opacity:1;stroke:none;stroke-width:0.12749;stroke-miterlimit:4;stroke-dasharray:none;paint-order:markers stroke fill"
       id="circle1522-3" />
    <circle
       r="0"
       style="fill:#4d4d4d;stroke-width:0.04;stroke-miterlimit:4;stroke-dasharray:none"
       class="cls-3"
       cx="26.4487"
       cy="26.461967"
       id="circle255" />
    <text
       xml:space="preserve"
       style="font-size:26.4733px;line-height:1.25;font-family:'OCR A Extended';-inkscape-font-specification:'OCR A Extended';stroke-width:0.661834;fill:#000000;"
       x="84.688438"
       y="18.502123"
       id="text867"><tspan
         sodipodi:role="line"
         id="tspan865"
         x="84.688438"
         y="18.502123"
         style="stroke-width:0.661834;fill:#000000;">Hackerspace </tspan><tspan
         sodipodi:role="line"
         x="84.688438"
         y="51.59375"
         style="stroke-width:0.661834;fill:#000000;"
         id="tspan869">Pomorze</tspan></text>
  </g>
  <g
     inkscape:groupmode="layer"
     id="layer4"
     inkscape:label="Layer 1"
     style="display:none;opacity:1"
     transform="translate(18.723188,18.640692)">
    <g
       style="display:inline"
       data-name="logo_2"
       id="logo_2-8"
       transform="matrix(0.27239732,0,0,0.27239732,-193.73637,-73.769521)">
      <circle
         id="circle1383"
         r="97.379997"
         cy="368.67001"
         cx="808.10999"
         style="fill:#666666" />
      <rect
         id="rect1385"
         transform="rotate(45,786.79232,341.34005)"
         rx="2.8399999"
         height="29.9"
         width="5.9699998"
         y="326.38"
         x="783.79999"
         class="cls-1"
         style="fill:#ffffff" />
      <path
         id="path1387"
         d="M 793.19,334.93 789,330.78 c -0.64,-0.64 -0.19,-1.95 0.85,-2.49 l 9.34,-4.9 8.08,-4.23 c 1.29,-0.67 2.32,0.36 1.65,1.65 l -4.23,8.08 -4.9,9.34 c -0.54,1 -1.85,1.49 -2.49,0.85 z"
         class="cls-1"
         inkscape:connector-curvature="0"
         style="fill:#ffffff" />
      <rect
         id="rect1389"
         transform="rotate(-45,777.77374,350.33557)"
         rx="2.8399999"
         height="28.66"
         width="5.9299998"
         y="336.01001"
         x="774.82001"
         class="cls-1"
         style="fill:#ffffff" />
      <rect
         id="rect1391"
         transform="rotate(-135,753.98593,358.05694)"
         rx="2.8399999"
         height="24.43"
         width="5.9299998"
         y="345.84"
         x="751.02002"
         class="cls-1"
         style="fill:#ffffff" />
      <rect
         id="rect1393"
         transform="rotate(-45,804.09479,376.65303)"
         rx="2.8399999"
         height="28.66"
         width="5.9299998"
         y="362.32001"
         x="801.13"
         class="cls-1"
         style="fill:#ffffff" />
      <rect
         id="rect1395"
         transform="rotate(-45,830.52363,403.08585)"
         rx="2.8399999"
         height="28.41"
         width="5.9299998"
         y="388.88"
         x="827.57001"
         class="cls-1"
         style="fill:#ffffff" />
      <rect
         id="rect1397"
         transform="rotate(45,822.61387,357.89782)"
         rx="2.8399999"
         height="58.650002"
         width="5.9699998"
         y="328.57001"
         x="819.63"
         class="cls-1"
         style="fill:#ffffff" />
      <path
         id="path1399"
         d="m 840.07,340.44 -4.14,-4.15 c -0.64,-0.64 -0.2,-2 0.85,-2.49 l 9.34,-4.9 8.07,-4.23 c 1.29,-0.67 2.32,0.36 1.65,1.65 l -4.23,8.08 -4.89,9.34 c -0.55,1 -1.86,1.49 -2.5,0.85 z"
         class="cls-1"
         inkscape:connector-curvature="0"
         style="fill:#ffffff" />
      <rect
         id="rect1401"
         transform="rotate(45,839.10112,394.69707)"
         rx="2.8399999"
         height="29.9"
         width="5.9699998"
         y="379.75"
         x="836.10999"
         class="cls-1"
         style="fill:#ffffff" />
      <path
         id="path1403"
         d="m 845.5,388.3 -4.15,-4.15 c -0.64,-0.64 -0.19,-1.95 0.85,-2.5 l 9.34,-4.89 8.08,-4.23 c 1.29,-0.68 2.32,0.36 1.65,1.65 l -4.27,8.07 -4.89,9.34 c -0.55,1.05 -1.86,1.49 -2.5,0.85 z"
         class="cls-1"
         inkscape:connector-curvature="0"
         style="fill:#ffffff" />
      <rect
         id="rect1405"
         transform="rotate(-45,794.89779,385.88256)"
         rx="2.8399999"
         height="103.14"
         width="5.9299998"
         y="334.31"
         x="791.92999"
         class="cls-1"
         style="fill:#ffffff" />
      <rect
         id="rect1407"
         transform="rotate(-135,780.99096,399.79104)"
         rx="2.8399999"
         height="87.793861"
         width="5.9299927"
         y="332.77615"
         x="778.03003"
         class="cls-1"
         style="fill:#ffffff" />
    </g>
  </g>
  <g
     style="display:none"
     id="layer1"
     inkscape:groupmode="layer"
     inkscape:label="Guides"
     transform="translate(18.723188,18.640692)">
    <circle
       r="44.95388"
       cy="26.500477"
       cx="26.416187"
       id="path34"
       style="fill:none;stroke:#0000ff;stroke-width:0.134862;stroke-miterlimit:4;stroke-dasharray:none;paint-order:markers stroke fill" />
    <rect
       y="-5.2245226"
       x="-5.2168536"
       height="63.337074"
       width="63.337074"
       id="rect859"
       style="fill:none;stroke:#0000ff;stroke-width:0.13429;stroke-miterlimit:4;stroke-dasharray:none;paint-order:markers stroke fill" />
    <rect
       y="4.0360384"
       x="4.0360394"
       height="44.844589"
       width="44.844589"
       id="rect865"
       style="fill:none;stroke:#0000ff;stroke-width:0.134578;stroke-miterlimit:4;stroke-dasharray:none;paint-order:markers stroke fill" />
    <ellipse
       style="fill:none;stroke:#0000ff;stroke-width:0.134544;stroke-miterlimit:4;stroke-dasharray:none;paint-order:markers stroke fill"
       id="circle1531"
       cy="26.458334"
       cx="26.412355"
       rx="31.636749"
       ry="31.68273" />
    <ellipse
       ry="24.504429"
       rx="24.467909"
       cx="28.39673"
       cy="24.556459"
       id="ellipse1533"
       style="fill:none;stroke:#0000ff;stroke-width:0.104059;stroke-miterlimit:4;stroke-dasharray:none;paint-order:markers stroke fill" />
  </g>
</svg>
